Coordinates
version=1
nRows=21
nColumns=28
inDegrees=yes

Units are S.I. units (second, meters, Newtons, ...)
Angles are in degrees.

endheader
time	pelvis_tilt	pelvis_list	pelvis_rotation	pelvis_tx	pelvis_ty	pelvis_tz	hip_flexion_r	hip_adduction_r	hip_rotation_r	knee_angle_r	ankle_angle_r	subtalar_angle_r	mtp_angle_r	hip_flexion_l	hip_adduction_l	hip_rotation_l	knee_angle_l	socket_flexion	socket_adduction	socket_rotation	socket_tx	socket_ty	socket_tz	foot_flex	lumbar_extension	lumbar_bending	lumbar_rotation
      0.00000000	     -2.54697138	     -0.38591590	     -2.70890109	     -0.78820521	      0.97012514	      0.25258416	    -21.43236474	      2.94647630	      5.43977419	     -1.04243279	     -3.33810550	    -19.31183547	     11.21087760	     24.71775465	      2.10985819	      0.82795146	      1.33949061	      2.51639775	     -3.46231884	      2.72047486	      0.01972648	      0.00054585	     -0.00833119	     -1.68271449	     -6.27609888	      0.34085527	      0.15984209
      0.00416667	     -2.52755331	     -0.34771425	     -2.81022636	     -0.78245074	      0.96883846	      0.25246664	    -21.64325207	      2.86173467	      5.41913383	     -1.33013993	     -3.37657342	    -19.30850682	     11.27518551	     24.72018389	      2.13733766	      0.89897477	      1.10885748	      2.74299400	     -3.46678960	      2.75268527	      0.02000000	      0.00011167	     -0.00846248	     -1.81867566	     -6.17752740	      0.29588438	      0.21320154
      0.00833333	     -2.12115634	      0.14768890	     -3.23321588	     -0.77670148	      0.96837961	      0.25264617	    -21.69763958	      2.05860129	      4.01264440	     -2.45411073	     -3.18660937	    -17.14160699	     18.80097196	     24.22251641	      2.75800260	      0.15653374	     -0.29112559	      1.64088268	     -3.81703542	      2.98891359	      0.01676903	      0.00002821	     -0.00640857	     -2.47698732	     -6.66355603	     -0.44502574	      1.58977107
      0.01250000	     -2.10575936	      0.22491659	     -3.23442114	     -0.77073976	      0.96705343	      0.25248477	    -21.92751811	      1.97584403	      3.95759129	     -2.71734728	     -3.13129319	    -17.25470022	     18.84842166	     24.37715568	      2.82825533	      0.27426819	     -0.60529963	      1.93786312	     -3.76961730	      3.04220056	      0.01797892	     -0.00040636	     -0.00684873	     -3.06581935	     -6.64890036	     -0.57417316	      1.54841788
      0.01666667	     -2.08649128	      0.29755102	     -3.23014838	     -0.76463376	      0.96573558	      0.25216897	    -22.12942567	      1.88929861	      3.90224260	     -3.05201703	     -3.13189466	    -17.34673900	     18.90151792	     24.50505543	      2.96136785	      0.37810243	     -0.92076364	      2.24229778	     -3.78008214	      3.07807113	      0.01900781	     -0.00081282	     -0.00682071	     -3.63981931	     -6.63096721	     -0.67732512	      1.53522611
      0.02083333	     -2.07180722	      0.38631658	     -3.23052653	     -0.75840512	      0.96444511	      0.25183761	    -22.31223558	      1.78263615	      3.83632422	     -3.41682977	     -3.16207789	    -17.42569011	     18.96156293	     24.63630707	      3.11869838	      0.47129917	     -1.24962421	      2.56172505	     -3.79484515	      3.09589823	      0.02000000	     -0.00117596	     -0.00672550	     -4.20702206	     -6.61322397	     -0.80206597	      1.54123509
      0.02500000	     -2.07995201	      0.43043431	     -3.26538533	     -0.75163777	      0.96306508	      0.25159258	    -22.54372644	      1.71038514	      3.84287989	     -3.69830062	     -3.19825368	    -17.44273880	     18.98380260	     24.62339200	      3.18394960	      0.53789127	     -1.52344572	      2.83405736	     -3.78127761	      3.11281432	      0.02000000	     -0.00184426	     -0.00682857	     -4.45040057	     -6.45744472	     -0.84989450	      1.54611673
      0.02916667	     -2.08953817	      0.78399596	     -3.19794448	     -0.74533437	      0.96193500	      0.25101697	    -22.47667137	      1.33335215	      3.26487426	     -4.46562331	     -3.31632495	    -17.69272133	     19.34371654	     24.79334922	      3.81321795	      0.69865460	     -2.21138612	      2.84693738	     -3.96872041	      2.85577876	      0.02000000	     -0.00178066	     -0.00516352	     -5.31359587	     -6.46173917	     -1.29546568	      1.67760265
      0.03333333	     -2.10109476	      0.82753556	     -3.22605464	     -0.73843531	      0.96071281	      0.25084027	    -22.71345968	      1.27637739	      3.32997410	     -4.71638439	     -3.36205820	    -17.67357491	     19.36775101	     24.76785672	      3.83809656	      0.77640898	     -2.49021182	      3.12225439	     -3.94369441	      2.88855716	      0.02000000	     -0.00235434	     -0.00561419	     -5.49803988	     -6.30360706	     -1.35349465	      1.67476664
      0.03750000	     -2.06619505	      1.10635074	     -3.21930131	     -0.73212954	      0.95969727	      0.25044443	    -22.69445708	      0.95968652	      2.99751502	     -5.42919105	     -3.62898515	    -17.64515577	     19.85128036	     24.93079790	      4.31799102	      0.99351604	     -3.36976583	      2.98128041	     -4.05841038	      2.50486308	      0.02000000	     -0.00254103	     -0.00428154	     -6.32882178	     -6.38219519	     -1.77911212	      1.80379708
      0.04166667	     -2.07095824	      1.17125728	     -3.18618970	     -0.72523008	      0.95857950	      0.25009375	    -22.90532904	      0.89087139	      3.07418919	     -5.73386777	     -3.69286940	    -17.62339308	     19.88496762	     24.91316548	      4.37224152	      1.05681701	     -3.67838694	      3.28433725	     -3.98844559	      2.53970178	      0.02000000	     -0.00325025	     -0.00493190	     -6.53249543	     -6.24388365	     -1.84321058	      1.80121681
      0.04583333	     -2.07265207	      1.33489480	     -3.05784566	     -0.71922719	      0.95782237	      0.24985951	    -22.90698252	      0.79945793	      3.11075068	     -6.30561048	     -3.89965909	    -17.60906758	     19.96260456	     25.05711749	      4.55383162	      1.09294261	     -4.11698466	      3.66817145	     -3.86381805	      2.54938602	      0.02000000	     -0.00326129	     -0.00535362	     -7.10100392	     -6.38560523	     -2.14653931	      1.78911259
      0.05000000	     -2.39401762	      1.80029052	     -2.73837128	     -0.71232593	      0.95652999	      0.24890893	    -22.35948750	      0.36099019	      1.90107207	     -7.35337118	     -4.30240331	    -17.54482773	     21.23567616	     25.70167814	      5.47537657	      0.86064229	     -5.50571159	      3.22546296	     -4.22260584	      2.81788375	      0.02000000	     -0.00279482	     -0.00280417	     -7.42299072	     -5.88884606	     -2.72001298	      1.77095845
      0.05416667	     -2.36641561	      1.88659113	     -2.68040577	     -0.70590551	      0.95588581	      0.24860250	    -22.43498838	      0.29581521	      2.02969346	     -7.85279398	     -4.49288673	    -17.47224500	     21.32796694	     25.74735013	      5.53662646	      0.81891980	     -5.92450299	      3.58509682	     -4.08295034	      2.79461118	      0.02000000	     -0.00318402	     -0.00346732	     -7.79085408	     -5.95526992	     -2.85460379	      1.71616135
      0.05833333	     -2.32131740	      2.06238820	     -2.79197210	     -0.69941506	      0.95541916	      0.24848129	    -22.18517274	      0.02099856	      1.72039031	     -8.94528405	     -5.02430711	    -17.44016527	     21.60971337	     25.75578574	      5.70762146	      0.67033988	     -6.55163296	      3.62331978	     -4.04243991	      2.69865228	      0.02000000	     -0.00351902	     -0.00323295	     -8.12484440	     -5.98140752	     -3.07623680	      1.62166767
      0.06250000	     -2.32059871	      2.19630077	     -2.61492027	     -0.69281068	      0.95487615	      0.24813435	    -22.23162016	     -0.02561900	      1.83785870	     -9.46228384	     -5.22399835	    -17.38567223	     21.69703431	     25.80879283	      5.85361690	      0.68616022	     -6.98714478	      3.98760290	     -3.89442094	      2.74002908	      0.02000000	     -0.00384176	     -0.00384037	     -8.24555160	     -5.98516631	     -3.32315397	      1.61267511
      0.06666667	     -2.33074600	      2.47264788	     -2.67270557	     -0.68629403	      0.95452351	      0.24781872	    -21.79620302	     -0.42865032	      1.25635968	    -10.74205246	     -5.98895770	    -17.38438328	     22.01571956	     25.92008516	      6.20077551	      0.53390258	     -7.75606265	      3.98754996	     -3.90694721	      2.60716712	      0.02000000	     -0.00381484	     -0.00316608	     -8.31902125	     -5.94119279	     -3.66099643	      1.58167374
      0.07083333	     -2.47625068	      2.75444596	     -2.48455827	     -0.67966217	      0.95401466	      0.24725575	    -21.37217488	     -0.71360065	      0.74500845	    -11.77809438	     -6.64462334	    -17.26598985	     22.60478883	     26.25121707	      6.63157153	      0.35456507	     -8.70200537	      3.95178035	     -3.94317579	      2.64662759	      0.02000000	     -0.00361660	     -0.00256302	     -8.30824601	     -5.73290840	     -4.04048778	      1.56536363
      0.07500000	     -3.21986856	      3.04387769	     -1.90984577	     -0.67288498	      0.95250328	      0.24584329	    -20.33414810	     -0.95437915	     -0.28909663	    -12.82029339	     -7.13609891	    -16.61947600	     25.42899947	     27.69571115	      7.32901799	     -0.28662035	    -11.20901373	      2.89207525	     -4.30204467	      3.51669230	      0.02000000	     -0.00295125	     -0.00075865	     -8.47683962	     -4.82327744	     -4.40302519	      1.37215210
      0.07916667	     -3.01794329	      3.11316452	     -1.96161726	     -0.66658961	      0.95264950	      0.24570100	    -20.20220866	     -1.08277147	     -0.17450090	    -13.90297816	     -7.66097678	    -16.49786057	     25.61433532	     27.53451870	      7.28113534	     -0.42731218	    -11.76704610	      3.14152519	     -4.08122322	      3.43049693	      0.02000000	     -0.00321319	     -0.00157035	     -8.13689776	     -5.11115373	     -4.49682991	      1.23597859
      0.08333333	     -2.91828627	      3.27230078	     -1.92943290	     -0.66012590	      0.95275619	      0.24549808	    -19.93651932	     -1.29221844	     -0.29415426	    -15.02409928	     -8.40065032	    -16.40006466	     25.79875388	     27.45896933	      7.37005969	     -0.53095205	    -12.33365192	      3.32837814	     -3.88932744	      3.38307314	      0.02000000	     -0.00337405	     -0.00215746	     -7.98307607	     -5.23699556	     -4.74002107	      1.18159669
